<svg width="40" height="40" viewBox="0 0 40 40" fill="none" xmlns="http://www.w3.org/2000/svg">
<g id="cryptocurrency-color:btc" clip-path="url(#clip0_192_12936)">
<g id="Group">
<path id="Vector" d="M20 40C31.0457 40 40 31.0457 40 20C40 8.9543 31.0457 0 20 0C8.9543 0 0 8.9543 0 20C0 31.0457 8.9543 40 20 40Z" fill="#F7931A"/>
<path id="Vector_2" d="M28.9853 17.525C29.3778 14.905 27.3816 13.4963 24.6541 12.5563L25.5391 9.00625L23.3791 8.46875L22.5166 11.925C21.9491 11.7825 21.3666 11.65 20.7853 11.5175L21.6541 8.03875L19.4941 7.5L18.6091 11.0487C18.1391 10.9412 17.6766 10.8363 17.2291 10.7238L17.2316 10.7125L14.2516 9.96875L13.6766 12.2762C13.6766 12.2762 15.2803 12.6438 15.2466 12.6663C16.1216 12.885 16.2791 13.4637 16.2528 13.9237L15.2453 17.9675C15.3053 17.9825 15.3828 18.005 15.4703 18.0387L15.2416 17.9825L13.8291 23.6475C13.7216 23.9125 13.4503 24.3112 12.8378 24.16C12.8603 24.1912 11.2678 23.7687 11.2678 23.7687L10.1953 26.2412L13.0078 26.9425C13.5303 27.0738 14.0428 27.2113 14.5466 27.34L13.6528 30.93L15.8116 31.4675L16.6966 27.9175C17.2866 28.0763 17.8591 28.2237 18.4191 28.3638L17.5366 31.8987L19.6966 32.4362L20.5903 28.8538C24.2753 29.5513 27.0453 29.27 28.2116 25.9375C29.1516 23.255 28.1653 21.7063 26.2266 20.6975C27.6391 20.3725 28.7016 19.4438 28.9853 17.525ZM24.0478 24.4475C23.3816 27.1313 18.8628 25.68 17.3978 25.3162L18.5853 20.56C20.0503 20.9262 24.7466 21.65 24.0478 24.4475ZM24.7166 17.4862C24.1078 19.9275 20.3478 18.6863 19.1291 18.3825L20.2041 14.07C21.4228 14.3737 25.3516 14.94 24.7166 17.4862Z" fill="white"/>
</g>
</g>
<defs>
<clipPath id="clip0_192_12936">
<rect width="40" height="40" fill="white"/>
</clipPath>
</defs>
</svg>
