<svg width="40" height="40" viewBox="0 0 40 40" fill="none" xmlns="http://www.w3.org/2000/svg">
<g id="cryptocurrency-color:dot" clip-path="url(#clip0_192_12944)">
<g id="Group">
<path id="Vector" d="M20 40C31.0457 40 40 31.0457 40 20C40 8.9543 31.0457 0 20 0C8.9543 0 0 8.9543 0 20C0 31.0457 8.9543 40 20 40Z" fill="#E6007A"/>
<path id="Vector_2" d="M20.3399 8.28125C15.7062 8.28125 11.9199 12.0463 11.9199 16.7013C11.9199 17.6375 12.0749 18.5513 12.3649 19.4413C12.4676 19.7351 12.6815 19.9769 12.9606 20.1146C13.2398 20.2523 13.5618 20.2749 13.8574 20.1775C14.151 20.0746 14.3925 19.8606 14.53 19.5815C14.6674 19.3024 14.6898 18.9805 14.5924 18.685C14.348 17.9911 14.2348 17.2578 14.2587 16.5225C14.3474 13.3825 16.8874 10.7975 20.0287 10.6425C20.8515 10.5993 21.6745 10.7239 22.4477 11.0087C23.2208 11.2936 23.9279 11.7327 24.526 12.2995C25.1241 12.8662 25.6007 13.5487 25.9267 14.3054C26.2527 15.0622 26.4214 15.8773 26.4224 16.7013C26.4206 18.2508 25.8269 19.7412 24.7627 20.8676C23.6986 21.994 22.2444 22.6714 20.6974 22.7612C20.6974 22.7612 19.5162 22.8275 18.9374 22.9175C18.6474 22.9612 18.4249 23.0063 18.2687 23.0288C18.2012 23.0513 18.1349 22.9838 18.1562 22.9163L18.3574 21.9375L19.4487 16.9025C19.5123 16.6014 19.4545 16.2875 19.2878 16.0288C19.1211 15.7701 18.8591 15.5877 18.5587 15.5212C18.2574 15.4577 17.9433 15.5157 17.6846 15.6826C17.4259 15.8495 17.2436 16.1118 17.1774 16.4125C17.1774 16.4125 14.5487 28.665 14.5262 28.7987C14.4626 29.1 14.5206 29.4141 14.6875 29.6728C14.8544 29.9315 15.1168 30.1138 15.4174 30.18C15.7187 30.2436 16.0328 30.1856 16.2915 30.0187C16.5502 29.8517 16.7325 29.5894 16.7987 29.2887C16.8199 29.155 17.1774 27.5288 17.1774 27.5288C17.3039 26.9325 17.6115 26.3899 18.0581 25.9751C18.5047 25.5603 19.0685 25.2935 19.6724 25.2113C20.1094 25.1634 20.5474 25.1263 20.9862 25.1C23.1012 24.9352 25.0762 23.979 26.5174 22.4223C27.9585 20.8655 28.7597 18.8226 28.7612 16.7013C28.7612 12.0463 24.9737 8.28125 20.3399 8.28125ZM20.9412 27.6625C20.7598 27.6234 20.5725 27.6206 20.39 27.6544C20.2076 27.6882 20.0336 27.7579 19.8783 27.8594C19.723 27.9609 19.5893 28.0922 19.4851 28.2457C19.3809 28.3993 19.3082 28.5719 19.2712 28.7537C19.1149 29.5112 19.5837 30.2687 20.3624 30.425C20.544 30.4643 20.7315 30.4671 20.9142 30.4333C21.0968 30.3995 21.271 30.3298 21.4265 30.2282C21.5819 30.1265 21.7157 29.995 21.8199 29.8412C21.9242 29.6875 21.9968 29.5146 22.0337 29.3325C22.1887 28.5537 21.7212 27.8175 20.9412 27.6625Z" fill="white"/>
</g>
</g>
<defs>
<clipPath id="clip0_192_12944">
<rect width="40" height="40" fill="white"/>
</clipPath>
</defs>
</svg>
