<svg width="192" height="20" viewBox="0 0 192 20" fill="none" xmlns="http://www.w3.org/2000/svg">
<path d="M75.6522 19.8615H86.4025V0.14621H75.6522V19.8615ZM67.5721 0.14621H73.9361V2.67795H68.0492C67.0873 2.67795 66.2716 2.95498 65.656 3.50135C65.0404 4.04771 64.6941 4.80185 64.6941 5.6945C64.6941 6.58715 65.0327 7.34129 65.656 7.88765C66.2793 8.43401 67.095 8.71104 68.0492 8.71104H73.9361V19.7999H61.0696V17.2682H67.7799C68.8034 17.2682 69.696 16.9911 70.3117 16.3755C70.9965 15.7599 71.2736 15.075 71.2736 14.1131C71.2736 13.2205 70.935 12.4663 70.3117 11.92C69.6268 11.3736 68.8034 11.0966 67.7799 11.0966H66.9565C64.217 11.0966 61.9623 8.90342 61.9623 6.16391V5.54829C61.9623 2.47018 64.494 0 67.5798 0V0.14621H67.5721ZM94.2747 0.14621H100.439V2.67795H94.7518C93.7899 2.67795 92.9742 2.95498 92.3586 3.50135C91.743 4.04771 91.3967 4.80185 91.3967 5.6945C91.3967 6.58715 91.7353 7.34129 92.3586 7.88765C92.9742 8.43401 93.7976 8.71104 94.7518 8.71104H100.431V14.1901C100.431 17.2682 97.8992 19.8076 94.7518 19.8076H88.1801V17.2759H94.344C95.3674 17.2759 96.2601 16.9988 96.8757 16.3832C97.5606 15.7676 97.8376 15.0827 97.8376 14.1208C97.8376 13.2282 97.499 12.474 96.8757 11.9277C96.1908 11.3813 95.3674 11.1043 94.344 11.1043H88.7264L88.6572 5.62524C88.6572 2.54713 91.1889 0.0769527 94.2747 0.0769527V0.14621ZM9.99615 0.14621H17.1835V2.67795H10.2039C8.90343 2.67795 7.67218 3.01654 6.57176 3.63986C5.47134 4.26318 4.58638 5.14044 3.9015 6.31012C3.28588 7.40285 2.93959 8.63409 2.93959 9.94229C2.93959 11.2505 3.27818 12.6125 3.9015 13.7053C4.52482 14.798 5.40977 15.6906 6.57176 16.3063C7.66449 16.9219 8.89573 17.2682 10.2039 17.2682H14.4517V11.1043H7.53367V8.64179H17.1835V19.7999H9.99615C4.44787 19.7999 0 15.4213 0 9.94229C0 4.46325 4.44787 0.0769527 9.99615 0.0769527V0.14621ZM38.1993 9.31897V19.9307H35.6676V9.38823C35.6676 5.6945 32.6587 2.74721 28.9573 2.74721C25.2559 2.74721 22.247 5.6945 22.247 9.38823V19.9307H19.646V0.215467H28.9573C34.09 0.215467 38.1993 4.32474 38.1993 9.38823V9.31897ZM84.5479 6.10235C84.5479 8.01847 82.9704 9.52674 81.0543 9.52674C79.1381 9.52674 77.5606 8.01847 77.5606 6.10235C77.5606 4.18623 79.1381 2.67795 81.0543 2.67795C82.9781 2.67795 84.5479 4.18623 84.5479 6.10235ZM107.418 10.0038C107.418 15.4829 111.866 19.8615 117.414 19.8615H121.662V17.3297H117.484C113.305 17.3297 109.95 13.9746 110.089 9.86533C110.158 5.89457 113.582 2.67795 117.622 2.67795H121.662V0.14621H117.414C111.935 0.14621 107.418 4.52482 107.418 10.0038ZM182.724 0.14621H173.413V19.8615H176.014V9.31897C176.014 5.62524 179.023 2.67795 182.724 2.67795C186.418 2.67795 189.434 5.62524 189.434 9.31897V19.8615H191.966V9.31897C191.966 4.25548 187.788 0.14621 182.724 0.14621ZM136.168 6.78723C136.168 7.33359 135.96 7.8107 135.552 8.15698C135.144 8.56483 134.729 8.70335 134.182 8.70335H128.226C127.68 8.70335 127.203 8.49557 126.856 8.15698C126.449 7.81839 126.31 7.33359 126.31 6.78723V0.14621H123.709V19.8615H126.31V13.1512C126.31 12.6048 126.518 12.1277 126.856 11.7815C127.264 11.4429 127.68 11.2351 128.226 11.2351H134.182C134.729 11.2351 135.206 11.4429 135.552 11.7815C135.96 12.1893 136.168 12.6048 136.168 13.1512V19.8615H138.699V0.14621H136.168V6.78723ZM160.539 0.14621V19.8615H171.289V0.14621H160.539ZM165.879 9.52674C163.963 9.52674 162.386 8.01847 162.386 6.10235C162.386 4.18623 163.963 2.67795 165.879 2.67795C167.795 2.67795 169.373 4.18623 169.373 6.10235C169.373 8.01847 167.795 9.52674 165.879 9.52674ZM151.097 1.16968C150.758 0.415544 150.273 0.0769527 149.658 0.0769527C149.042 0.0769527 148.565 0.415544 148.219 1.16968L139.661 19.8615H159.584L151.097 1.16968ZM149.658 16.6449C147.741 16.6449 146.164 15.1366 146.164 13.2205C146.164 11.3043 147.741 9.79608 149.658 9.79608C151.574 9.79608 153.151 11.3043 153.151 13.2205C153.151 15.1366 151.574 16.6449 149.658 16.6449ZM59.015 5.00962C58.1224 3.50135 56.8911 2.2701 55.3213 1.44671C53.7437 0.554059 52.0277 0.14621 50.2501 0.14621C48.4032 0.14621 46.7564 0.554059 45.1866 1.44671C43.6091 2.33936 42.3778 3.50135 41.4929 5.00962C40.6002 6.51789 40.1924 8.22624 40.1924 10.0038C40.1924 11.7815 40.6002 13.4282 41.4929 14.9981C42.3855 16.5063 43.6168 17.7376 45.1866 18.6302C46.7641 19.5229 48.4725 20 50.2501 20C52.0277 20 53.813 19.5229 55.3136 18.6302C56.8911 17.7376 58.1224 16.5063 59.0073 14.9981C59.9 13.4898 60.3771 11.7815 60.3771 10.0038C60.3771 8.22624 59.9077 6.57945 59.015 5.00962ZM50.2501 13.4975C48.334 13.4975 46.7564 11.9892 46.7564 10.0731C46.7564 8.15698 48.334 6.64871 50.2501 6.64871C52.1662 6.64871 53.7437 8.15698 53.7437 10.0731C53.7437 11.9892 52.1662 13.4975 50.2501 13.4975Z" fill="white"/>
</svg>
