<svg width="771" height="267" viewBox="0 0 771 267" fill="none" xmlns="http://www.w3.org/2000/svg">
<path d="M812 215.593C808.864 215.869 807.283 217.59 807.258 220.757C807.245 223.891 807.258 227.025 807.258 230.146C806.982 230.146 806.719 230.146 806.443 230.146C806.443 226.636 806.468 223.114 806.443 219.604C806.405 215.818 806.38 215.806 802.453 215.781C795.391 215.756 788.328 215.743 781.265 215.756C777.577 215.756 777.539 215.793 777.527 219.366C777.502 226.11 777.527 232.866 777.527 239.61C777.213 239.61 776.912 239.61 776.599 239.61C776.599 232.829 776.624 226.035 776.599 219.253C776.586 215.806 776.536 215.768 773.124 215.743C765.409 215.706 757.694 215.681 749.978 215.706C747.131 215.706 747.056 215.781 747.018 218.501C746.93 226.737 746.918 234.96 746.817 243.195C746.792 244.85 747.369 245.577 749.063 245.564C753.177 245.514 757.292 245.552 761.394 246.016C757.995 246.016 754.582 246.204 751.208 245.941C749.288 245.79 747.57 246.793 745.563 246.304C743.706 245.853 741.674 246.129 739.717 246.116C737.622 246.116 735.527 246.129 733.444 246.141C731.487 246.141 729.518 246.154 727.561 246.166C725.466 246.166 723.371 246.166 721.288 246.179C716.96 246.179 717.136 245.928 717.011 250.102C716.973 251.281 716.898 252.446 716.371 253.625C716.371 251.92 716.321 250.215 716.383 248.51C716.434 246.906 715.869 246.154 714.138 246.166C705.771 246.229 697.403 246.229 689.023 246.166C687.091 246.154 686.514 246.993 686.539 248.748C686.59 251.957 686.552 255.154 686.552 258.363C686.289 258.363 686.038 258.363 685.774 258.363C685.774 255.229 685.824 252.108 685.762 248.974C685.711 246.279 685.661 246.216 682.839 246.204C675.249 246.166 667.672 246.166 660.082 246.204C656.959 246.204 656.896 246.266 656.833 249.551C656.771 253.587 656.821 257.611 656.821 261.647C656.532 261.647 656.244 261.647 655.968 261.647C655.968 257.473 656.005 253.299 655.968 249.137C655.943 246.291 655.892 246.229 653.208 246.216C645.229 246.179 637.251 246.266 629.272 246.166C627.177 246.141 626.525 246.906 626.575 248.886C626.65 251.895 626.538 254.891 626.5 257.899C626.487 259.441 626.387 260.97 625.409 262.412C625.409 257.874 625.333 253.336 625.446 248.811C625.496 246.73 624.681 246.154 622.699 246.166C614.457 246.254 606.215 246.254 597.986 246.166C595.903 246.141 595.288 246.893 595.314 248.886C595.401 254.627 595.351 260.381 595.351 266.122H594.536C594.536 263.013 594.548 259.892 594.536 256.771C594.523 254.026 594.435 251.281 594.423 248.535C594.423 246.968 593.871 246.166 592.127 246.179C583.76 246.241 575.392 246.229 567.012 246.179C565.219 246.179 564.817 247.019 564.83 248.585C564.867 254.728 564.842 260.857 564.842 267H563.989C563.989 263.64 563.989 260.281 563.989 256.909C563.989 254.038 563.926 251.155 563.952 248.285C563.952 246.805 563.312 246.191 561.832 246.204C553.59 246.229 545.348 246.241 537.118 246.204C535.6 246.204 535.048 246.856 535.048 248.31C535.061 251.97 534.998 255.63 534.986 259.291C534.973 261.635 534.986 263.979 534.986 266.323H534.158C534.158 260.644 534.195 254.978 534.145 249.3C534.12 246.292 534.057 246.229 531.097 246.216C523.244 246.179 515.403 246.179 507.55 246.216C504.615 246.229 504.564 246.291 504.527 249.325C504.477 254.251 504.527 259.178 504.527 264.091C504.213 264.091 503.9 264.091 503.586 264.091C503.586 259.14 503.624 254.176 503.573 249.225C503.548 246.292 503.486 246.229 500.462 246.216C492.873 246.179 485.296 246.179 477.706 246.216C474.796 246.229 474.745 246.291 474.708 249.35C474.658 253.399 474.708 257.435 474.708 261.484C474.407 261.484 474.118 261.484 473.817 261.484C473.817 257.297 473.754 253.098 473.842 248.911C473.892 246.956 473.29 246.129 471.183 246.154C463.079 246.241 454.962 246.229 446.858 246.154C444.864 246.129 443.998 246.78 444.061 248.824C444.161 251.782 444.086 254.74 444.086 257.699C443.835 257.699 443.572 257.699 443.321 257.699C443.321 254.703 443.258 251.707 443.346 248.711C443.396 246.931 442.869 246.141 440.912 246.154C432.808 246.241 424.692 246.216 416.588 246.154C414.907 246.154 414.229 246.843 414.217 248.46C414.204 249.977 414.054 251.481 413.577 252.985C413.577 251.682 413.615 250.391 413.577 249.087C413.464 246.216 413.452 246.129 410.403 246.166C401.521 246.292 392.627 246.254 383.745 246.216C375.478 246.191 367.174 246.191 358.894 245.477C365.819 245.477 372.756 245.502 379.681 245.477C382.993 245.464 383.018 245.414 383.018 242.343C383.005 234.508 382.98 226.661 382.93 218.827C382.905 215.743 382.855 215.668 379.982 215.668C372.392 215.643 364.815 215.668 357.226 215.718C354.504 215.743 354.441 215.818 354.403 218.651C354.328 223.741 354.328 228.842 354.278 233.944C354.265 235.185 354.127 236.426 353.45 237.68C353.375 236.464 353.249 235.235 353.237 234.02C353.186 228.792 353.136 223.565 353.174 218.338C353.174 216.621 352.76 215.681 350.778 215.706C342.536 215.793 334.294 215.793 326.065 215.768C324.333 215.768 323.806 216.545 323.819 218.15C323.869 222.688 323.832 227.238 323.229 231.788C323.079 227.489 322.966 223.189 322.79 218.89C322.665 215.881 322.64 215.818 319.654 215.793C312.065 215.743 304.487 215.743 296.898 215.768C294.113 215.768 294.088 215.856 293.975 218.614C293.912 220.043 293.975 221.484 293.561 222.951C293.473 221.56 293.41 220.168 293.297 218.777C293.059 215.869 293.009 215.743 289.986 215.731C282.145 215.681 274.292 215.718 266.452 215.718C266.452 215.442 266.452 215.154 266.452 214.878C274.267 214.878 282.082 214.903 289.885 214.878C293.084 214.866 293.147 214.816 293.147 211.581C293.147 204.399 293.109 197.204 293.034 190.021C292.996 186.712 292.946 186.661 289.848 186.649C282.133 186.624 274.418 186.636 266.703 186.674C263.591 186.687 263.541 186.749 263.529 190.033C263.491 197.467 263.529 204.913 263.529 212.346C263.24 212.346 262.964 212.346 262.676 212.346C262.676 207.407 262.676 202.456 262.676 197.517C262.676 194.91 262.701 192.29 262.638 189.682C262.575 186.799 262.538 186.712 259.853 186.699C251.611 186.661 243.369 186.674 235.14 186.724C232.355 186.737 232.292 186.824 232.229 189.595C232.154 192.979 232.217 196.376 232.217 199.761C231.941 199.761 231.652 199.761 231.376 199.761C231.376 196.539 231.414 193.318 231.376 190.109C231.326 186.762 231.289 186.724 227.801 186.712C218.932 186.687 210.063 186.712 200.842 186.712C200.842 177.197 200.855 168.084 200.842 158.959C200.842 155.775 200.78 155.725 197.556 155.7C190.104 155.662 182.64 155.662 175.188 155.7C171.927 155.712 171.876 155.775 171.789 158.959C171.713 161.553 171.776 164.136 171.073 166.73C171.073 163.86 170.986 160.989 171.099 158.131C171.174 156.213 170.384 155.649 168.577 155.637C166.106 155.637 163.634 155.374 161.163 154.697C163.66 154.697 166.156 154.659 168.652 154.709C170.195 154.734 171.086 154.346 171.073 152.541C171.023 144.18 171.023 135.819 171.073 127.458C171.073 125.765 170.409 125.164 168.765 125.176C160.523 125.226 152.281 125.251 144.052 125.176C142.12 125.164 141.618 125.979 141.581 127.746C141.468 133.362 141.229 138.965 140.502 144.581C140.502 139.078 140.539 133.587 140.489 128.084C140.464 125.302 140.401 125.226 137.654 125.214C131.382 125.164 125.109 125.201 118.824 124.788C124.984 124.612 131.143 124.462 137.315 124.274C140.414 124.173 140.477 124.161 140.489 121.328C140.527 113.882 140.527 106.436 140.489 98.9902C140.477 96.2575 140.401 96.1949 137.591 96.1698C130.002 96.1322 122.425 96.1322 114.835 96.1823C111.987 96.1949 111.962 96.2701 111.9 99.3913C111.787 105.396 111.975 111.413 111.373 117.404C111.297 118.169 111.222 118.946 110.695 119.698C110.695 112.942 110.72 106.185 110.695 99.4164C110.683 96.245 110.633 96.1949 107.421 96.1823C101.274 96.1447 95.1272 96.1823 88.9552 95.7311C91.1505 95.5681 93.3584 95.3174 95.5538 95.2547C99.7312 95.1544 103.921 95.1168 108.111 95.1419C109.817 95.1419 110.758 94.7784 110.733 92.7602C110.658 84.2614 110.683 75.775 110.733 67.2761C110.733 65.609 110.156 64.9697 108.462 64.9822C100.22 65.0449 91.9785 65.0825 83.7491 64.9947C81.7419 64.9697 81.3531 65.8346 81.3656 67.577C81.4283 75.0104 81.3907 82.4563 81.1398 89.9022C80.086 84.1485 80.4498 78.3322 80.2491 72.5409C80.1613 70.1342 81.4409 67.0756 79.509 65.4711C77.8531 64.1047 74.9803 65.0574 72.6469 65.0449C65.509 64.9947 58.371 65.0323 51.233 64.7942C59.6756 64.0922 68.1308 64.0797 76.586 64.017C80.2491 63.9919 80.2742 63.9418 80.2993 60.3066C80.362 52.7228 80.4247 45.1515 80.4122 37.5677C80.4122 34.5968 80.3244 34.5342 77.3262 34.5342C69.7366 34.5091 62.1595 34.5091 54.5699 34.5342C51.6595 34.5342 51.5968 34.5968 51.5842 37.6178C51.5466 45.327 51.5842 53.0236 50.9946 60.7328C50.8817 55.2047 50.7688 49.6642 50.6685 44.1361C50.6308 42.306 50.6685 40.4759 50.6559 38.6457C50.6308 35.9047 49.2927 34.5258 46.6416 34.5091C40.7581 34.4715 34.8746 34.4339 28.991 34.4088C27.2348 34.4088 25.4785 34.4088 23.7097 34.4088C23.7097 34.133 23.7097 33.8447 23.7097 33.569C31.4247 33.569 39.1272 33.594 46.8423 33.569C50.5681 33.5564 50.6308 33.5063 50.6559 29.9463C50.7186 22.7636 50.7437 15.5684 50.7061 8.38572C50.6935 5.6029 50.5932 5.52769 47.8208 5.51516C39.8423 5.47755 31.8638 5.47755 23.8853 5.51516C21.1129 5.51516 21.0376 5.59037 21.0251 8.32304C20.9749 14.8539 21.0125 21.3847 21.0125 27.903C20.7617 27.903 20.5108 27.903 20.2599 27.903C20.2599 21.5352 20.2849 15.1673 20.2599 8.79938C20.2348 5.5653 20.1846 5.51516 17.0233 5.49009C11.4032 5.45248 5.78315 5.49009 0.175629 5.49009C0.175629 5.18924 0.175629 4.8884 0.175629 4.58755C5.24373 4.58755 10.2993 4.61262 15.3674 4.58755C19.9964 4.56248 19.9964 4.53741 20.6111 0.162622C20.7617 0.325579 20.9875 0.450931 21 0.601354C21.1924 3.21703 22.5974 4.52487 25.2151 4.52487C32.2778 4.4998 39.3405 4.47473 46.4032 4.44966C49.0293 4.44131 50.5346 3.16689 50.9194 0.626424C50.957 0.413326 51.1953 0.237833 51.3333 0.0498047C51.7264 2.97469 53.4325 4.43713 56.4516 4.43713C62.862 4.43713 69.2724 4.43713 75.6828 4.43713C78.7855 4.43713 80.5836 2.99976 81.0771 0.125016C81.2025 0.313044 81.4158 0.476002 81.4283 0.651495C81.7043 4.39952 81.7043 4.41206 85.405 4.42459C92.3423 4.44966 99.267 4.4622 106.204 4.47473C109.332 4.47473 111.18 3.06661 111.749 0.250368C112.1 3.05826 113.714 4.5207 116.591 4.63769C118.147 4.70037 119.715 4.80065 121.271 5.30206C118.975 5.30206 116.679 5.3522 114.371 5.28952C112.753 5.23938 112.013 5.79093 112.025 7.52079C112.075 15.3553 112.075 23.2023 112.025 31.0368C112.025 32.679 112.565 33.4185 114.271 33.4185C122.375 33.406 130.491 33.4436 138.595 33.4812C140.226 33.4812 140.978 32.7416 141.041 31.1371C141.142 28.2666 141.305 25.396 141.832 22.5254C141.832 25.233 141.781 27.9406 141.844 30.6483C141.907 33.3684 141.957 33.3935 144.78 33.6066C146.862 33.757 148.944 33.8197 151.039 34.3211C148.869 34.3211 146.699 34.4088 144.529 34.296C142.521 34.1957 141.781 34.9353 141.819 36.9911C141.932 42.7447 141.857 48.4859 141.857 54.2395C141.857 56.3329 141.832 58.4263 141.857 60.5071C141.894 63.8039 141.919 63.854 145.018 63.8666C152.733 63.8916 160.448 63.8791 168.163 63.829C171.111 63.8164 171.136 63.7412 171.224 60.7453C171.274 58.8149 171.224 56.897 171.6 54.954C172.504 57.1477 172.24 59.4542 172.303 61.7105C172.34 63.1646 172.88 63.8791 174.385 63.8415C176.418 63.7914 178.437 63.8415 180.47 63.8415C180.47 64.1549 180.47 64.4808 180.482 64.7942C178.462 64.7942 176.455 64.8318 174.435 64.7942C172.943 64.7691 172.34 65.4209 172.353 66.9001C172.378 75.5243 172.353 84.1485 172.353 92.7728C172.353 94.1266 172.667 94.9664 174.31 94.9664C182.552 94.9163 190.794 94.9037 199.023 94.9664C201.018 94.979 200.993 93.7881 200.98 92.4092C200.968 86.8311 200.98 81.2404 201.219 75.6622C201.959 81.1275 201.934 86.6054 202.047 92.0833C202.109 94.8536 202.147 94.9163 204.882 94.9413C212.986 95.004 221.102 95.0166 229.206 95.0166C230.047 95.0166 231.075 95.4177 231.652 94.3146C231.74 94.1516 231.652 93.4246 232.004 93.8759C233.923 96.3202 236.645 94.465 238.79 95.3299C238.728 95.3425 238.602 95.3926 238.477 95.4052C231.452 95.7687 232.242 94.7032 232.28 101.861C232.317 108.266 232.305 114.672 232.38 121.065C232.405 123.873 232.48 123.948 235.215 123.96C243.457 123.998 251.699 123.998 259.928 123.96C262.663 123.948 262.726 123.873 262.776 121.09C262.839 117.442 262.789 113.782 262.789 110.134C263.077 110.134 263.378 110.134 263.667 110.134C263.667 113.92 263.729 117.718 263.642 121.503C263.591 123.359 264.244 124.036 266.125 124.011C275.145 123.923 284.165 123.91 293.185 123.948C295.493 123.948 297.801 124.236 300.335 124.399C293.034 124.65 294.138 123.873 294.138 130.529C294.138 137.586 294.138 144.643 294.201 151.701C294.226 154.446 294.276 154.509 297.036 154.521C304.751 154.559 312.466 154.559 320.181 154.521C322.941 154.509 323.041 154.446 323.079 151.663C323.154 146.185 323.104 140.707 323.104 135.217C323.392 135.217 323.668 135.217 323.957 135.217C323.957 140.682 323.932 146.148 323.957 151.613C323.982 154.433 324.032 154.509 326.717 154.521C334.695 154.559 342.674 154.484 350.652 154.571C352.547 154.584 353.588 154.195 353.525 152.027C353.487 150.36 353.826 148.68 354.478 147.013C354.478 148.893 354.504 150.773 354.478 152.653C354.453 153.92 354.943 154.609 356.31 154.546C357.351 154.496 358.405 154.546 359.446 154.546C377.348 154.546 395.249 154.546 413.151 155.236C404.532 155.236 395.901 155.211 387.283 155.248C384.247 155.261 384.197 155.336 384.21 158.269C384.235 166.505 384.26 174.728 384.348 182.964C384.373 185.709 384.448 185.784 387.233 185.784C395.086 185.809 402.927 185.797 410.78 185.759C413.527 185.746 413.59 185.671 413.615 182.876C413.677 177.649 413.652 172.422 413.665 167.194C413.665 164.85 413.665 162.519 414.305 160.175C414.443 166.818 414.581 173.449 414.719 180.093C414.744 181.133 414.781 182.186 414.731 183.227C414.643 185.007 415.321 185.822 417.228 185.797C425.068 185.721 432.921 185.696 440.774 185.797C442.857 185.822 443.484 185.019 443.459 183.039C443.383 176.771 443.434 170.504 444.048 164.236C444.149 170.153 444.224 176.082 444.337 181.998C444.412 185.709 444.425 185.734 448.013 185.746C455.464 185.759 462.928 185.759 470.38 185.734C473.855 185.721 473.892 185.684 473.918 182.324C473.955 177.11 473.918 171.882 474.181 166.655C474.896 171.882 474.745 177.147 474.833 182.387C474.883 185.646 474.909 185.709 478.082 185.721C485.672 185.759 493.249 185.759 500.839 185.721C503.599 185.709 503.661 185.621 503.699 182.826C503.762 178.413 503.711 173.988 503.711 169.576C504.013 169.576 504.326 169.576 504.627 169.576C504.627 174.013 504.577 178.438 504.64 182.876C504.677 185.634 504.753 185.709 507.563 185.734C515.416 185.784 523.256 185.771 531.109 185.734C534.17 185.721 534.22 185.659 534.283 182.713C534.346 179.191 534.296 175.668 534.296 172.146C534.584 172.146 534.873 172.146 535.161 172.146C535.161 175.793 535.236 179.454 535.136 183.102C535.073 185.195 535.964 185.797 537.921 185.771C545.762 185.709 553.615 185.696 561.468 185.771C563.563 185.797 564.202 184.894 564.152 182.951C564.064 179.83 564.127 176.696 564.127 173.575H564.943C564.943 176.784 564.993 179.993 564.918 183.189C564.88 184.982 565.47 185.784 567.389 185.759C575.631 185.696 583.873 185.696 592.102 185.759C594.021 185.771 594.624 184.856 594.611 183.127C594.586 180.256 594.611 177.385 594.611 174.527C594.9 174.527 595.176 174.527 595.464 174.527C595.464 177.486 595.502 180.444 595.452 183.402C595.414 185.019 596.004 185.771 597.71 185.759C606.215 185.721 614.708 185.721 623.213 185.759C624.857 185.759 625.597 185.182 625.559 183.49C625.496 180.231 625.547 176.959 625.76 173.688C626.688 176.771 626.713 179.93 626.663 183.089C626.625 185.157 627.466 185.797 629.461 185.784C637.439 185.709 645.418 185.709 653.396 185.784C655.416 185.809 656.168 185.12 656.131 183.076C656.03 178.125 656.093 173.161 656.093 168.197C656.369 168.197 656.645 168.197 656.934 168.197C656.934 172.848 656.896 177.498 656.946 182.149C656.984 185.684 657.047 185.734 660.396 185.746C667.986 185.784 675.563 185.709 683.152 185.797C685.159 185.822 685.925 185.145 685.9 183.102C685.812 176.571 685.862 170.052 685.862 163.521C686.15 163.521 686.439 163.521 686.728 163.521C686.728 169.701 686.702 175.881 686.728 182.049C686.753 185.721 686.79 185.746 690.416 185.771C698.005 185.797 705.582 185.809 713.172 185.784C716.245 185.784 716.283 185.721 716.333 182.801C716.459 174.44 716.547 166.079 716.634 157.718C716.659 155.223 716.634 155.223 713.109 154.609C722.781 154.609 732.453 154.609 742.138 154.609C746.14 154.609 746.14 154.584 746.491 150.372C746.491 150.247 746.566 150.121 746.717 149.62C746.792 150.698 746.93 151.412 746.88 152.114C746.767 153.92 747.444 154.634 749.364 154.621C757.731 154.534 766.099 154.546 774.478 154.584C776.147 154.584 776.824 153.97 776.799 152.29C776.736 148.667 776.787 145.045 776.787 141.409C777.05 141.409 777.326 141.409 777.59 141.409C777.59 144.932 777.69 148.454 777.552 151.964C777.464 154.082 778.355 154.596 780.312 154.584C788.152 154.509 796.005 154.496 803.858 154.584C805.903 154.609 806.618 153.894 806.593 151.876C806.518 145.345 806.568 138.815 806.568 132.284H807.409C807.409 137.975 807.409 143.666 807.409 149.369C807.409 150.159 807.409 150.936 807.421 151.726C807.48 153.548 808.425 154.488 810.256 154.546C810.896 154.571 811.548 154.546 812.188 154.534V155.323C811.799 155.361 811.41 155.449 811.021 155.436C807.321 155.323 807.421 155.587 807.434 159.159C807.459 166.58 807.446 174.001 807.484 181.422C807.509 186.649 807.107 185.822 812.176 185.909V186.699C811.912 186.699 811.649 186.724 811.385 186.724C807.584 186.724 807.471 186.198 807.471 190.485C807.471 197.153 807.434 203.81 807.471 210.478C807.496 215.367 806.781 215.004 812.163 214.928V215.718L812 215.593ZM262.538 170.616C262.538 166.442 262.475 162.281 262.563 158.106C262.6 156.264 261.923 155.499 260.066 155.549C257.457 155.624 254.848 155.562 252.238 155.574C246.505 155.587 240.76 155.649 235.027 155.612C233.17 155.612 232.116 156.013 232.142 158.219C232.217 166.68 232.192 175.154 232.129 183.615C232.129 185.358 232.869 185.847 234.475 185.834C243.081 185.784 251.686 185.771 260.292 185.834C261.998 185.834 262.588 185.17 262.563 183.515C262.5 179.216 262.538 174.916 262.538 170.616ZM776.548 170.654H776.573C776.573 166.354 776.523 162.055 776.599 157.755C776.624 155.925 775.934 155.223 774.077 155.236C765.86 155.286 757.643 155.286 749.426 155.173C747.294 155.148 746.805 156.025 746.83 157.956C746.93 166.292 746.955 174.628 746.93 182.964C746.93 184.869 747.394 185.784 749.539 185.771C757.618 185.684 765.71 185.771 773.788 185.746C776.435 185.746 776.486 185.646 776.523 182.763C776.573 178.727 776.523 174.69 776.523 170.642L776.548 170.654ZM263.504 170.767H263.453C263.453 175.066 263.478 179.366 263.441 183.666C263.428 185.095 263.867 185.822 265.435 185.809C273.916 185.771 282.396 185.771 290.876 185.809C292.407 185.809 292.946 185.145 292.959 183.703C292.971 175.104 292.996 166.505 293.072 157.906C293.084 156.038 292.244 155.411 290.45 155.424C282.358 155.499 274.28 155.549 266.188 155.524C264.219 155.524 263.416 156.188 263.466 158.257C263.591 162.418 263.504 166.593 263.504 170.767ZM247.496 154.471C251.536 154.471 255.588 154.496 259.627 154.446C262.425 154.421 262.487 154.371 262.513 151.638C262.563 143.691 262.575 135.743 262.538 127.796C262.538 125.076 262.437 124.963 259.615 124.963C251.398 124.963 243.181 125.063 234.964 125.051C233.032 125.051 232.116 125.602 232.129 127.721C232.217 135.794 232.229 143.879 232.129 151.951C232.104 154.195 233.133 154.521 234.989 154.484C239.167 154.408 243.332 154.459 247.509 154.459L247.496 154.471ZM231.201 170.855C231.201 166.68 231.113 162.506 231.238 158.344C231.301 156.264 230.461 155.612 228.491 155.624C220.4 155.687 212.308 155.7 204.217 155.649C202.134 155.637 201.545 156.552 201.532 158.482C201.495 166.831 201.394 175.167 201.231 183.515C201.194 185.345 201.833 186.097 203.69 186.072C212.045 185.947 220.4 185.859 228.742 185.859C230.599 185.859 231.276 185.258 231.238 183.377C231.138 179.203 231.201 175.029 231.201 170.855ZM716.246 230.485H716.158C716.158 226.31 716.12 222.149 716.17 217.974C716.195 216.37 715.668 215.605 713.937 215.618C705.595 215.668 697.24 215.655 688.898 215.618C687.167 215.618 686.627 216.395 686.627 217.974C686.627 226.31 686.627 234.646 686.527 242.995C686.502 244.913 687.317 245.439 689.111 245.427C697.328 245.376 705.545 245.376 713.762 245.439C715.581 245.452 716.333 244.913 716.271 242.995C716.158 238.833 716.233 234.659 716.233 230.485H716.246ZM534.057 230.685H534.045C534.045 226.649 534.082 222.612 534.032 218.576C533.995 215.731 533.944 215.655 531.26 215.643C523.306 215.605 515.353 215.605 507.4 215.643C504.59 215.655 504.514 215.718 504.502 218.451C504.452 226.523 504.514 234.609 504.439 242.681C504.414 244.624 504.953 245.464 507.061 245.439C515.14 245.351 523.231 245.439 531.31 245.389C533.97 245.376 534.02 245.301 534.045 242.431C534.095 238.52 534.045 234.609 534.045 230.71L534.057 230.685ZM610.129 245.376C614.444 245.376 618.76 245.326 623.075 245.402C624.756 245.427 625.384 244.825 625.371 243.145C625.308 234.659 625.321 226.16 625.346 217.674C625.346 216.182 624.756 215.605 623.263 215.605C614.633 215.643 606.002 215.643 597.384 215.605C595.878 215.605 595.301 216.207 595.314 217.686C595.339 226.172 595.351 234.671 595.288 243.158C595.288 244.875 595.941 245.427 597.597 245.402C601.774 245.326 605.964 245.376 610.142 245.376H610.129ZM323.756 170.504C323.756 174.678 323.819 178.865 323.731 183.039C323.694 184.932 324.12 185.859 326.315 185.822C334.419 185.696 342.523 185.709 350.627 185.784C352.559 185.797 353.086 185.044 353.086 183.252C353.061 174.766 353.086 166.279 353.199 157.793C353.224 155.649 352.283 155.186 350.376 155.211C342.41 155.298 334.432 155.323 326.466 155.261C324.434 155.248 323.694 155.938 323.744 157.968C323.844 162.143 323.769 166.329 323.769 170.504H323.756ZM745.939 170.604H746.014C746.014 166.304 745.952 161.992 746.039 157.693C746.077 155.875 745.5 155.148 743.593 155.148C735.502 155.148 727.41 155.073 719.319 154.96C717.55 154.935 716.735 155.474 716.772 157.417C716.948 166.016 717.061 174.628 717.099 183.239C717.099 185.12 717.864 185.709 719.67 185.709C727.498 185.659 735.339 185.734 743.167 185.709C745.839 185.709 745.889 185.609 745.914 182.738C745.964 178.702 745.914 174.653 745.914 170.604H745.939ZM278.269 154.446C282.308 154.446 286.348 154.358 290.387 154.484C292.444 154.546 293.097 153.757 293.097 151.776C293.097 143.565 293.185 135.367 293.31 127.157C293.335 125.364 292.708 124.524 290.839 124.55C282.496 124.687 274.154 124.8 265.812 124.888C264.231 124.9 263.453 125.465 263.466 127.182C263.516 135.518 263.529 143.854 263.466 152.19C263.466 153.869 264.068 154.496 265.749 154.471C269.914 154.396 274.091 154.446 278.269 154.446ZM473.692 230.434H473.654C473.654 226.26 473.604 222.073 473.679 217.899C473.704 216.22 473.077 215.58 471.383 215.593C463.142 215.643 454.912 215.655 446.67 215.593C444.751 215.58 444.161 216.357 444.161 218.137C444.161 226.361 444.136 234.596 444.011 242.819C443.973 244.988 444.939 245.427 446.846 245.414C454.824 245.339 462.803 245.414 470.769 245.376C473.591 245.376 473.642 245.301 473.667 242.594C473.717 238.545 473.667 234.496 473.667 230.447L473.692 230.434ZM806.33 170.403C806.33 166.229 806.292 162.042 806.342 157.868C806.367 156.063 805.677 155.298 803.808 155.311C795.83 155.349 787.851 155.336 779.885 155.248C778.016 155.223 777.376 155.9 777.389 157.755C777.477 166.242 777.489 174.741 777.464 183.227C777.464 184.994 777.916 185.822 779.885 185.809C787.864 185.734 795.842 185.746 803.808 185.822C805.652 185.834 806.392 185.232 806.355 183.352C806.267 179.04 806.33 174.728 806.33 170.416V170.403ZM322.615 170.817H322.828C322.828 166.63 322.866 162.456 322.815 158.269C322.778 155.474 322.652 155.336 319.955 155.323C312.24 155.311 304.525 155.336 296.81 155.411C294.075 155.436 294.013 155.524 294 158.357C293.95 166.593 293.95 174.816 293.975 183.051C293.975 185.696 294.063 185.759 296.923 185.771C304.513 185.797 312.09 185.797 319.679 185.771C322.489 185.759 322.564 185.696 322.602 182.976C322.665 178.927 322.615 174.878 322.615 170.83V170.817ZM564.805 230.347H564.78C564.78 234.521 564.842 238.695 564.754 242.857C564.717 244.662 565.256 245.414 567.188 245.389C575.405 245.314 583.622 245.301 591.851 245.389C593.808 245.414 594.323 244.587 594.297 242.832C594.21 234.621 594.159 226.411 594.185 218.2C594.185 216.144 593.382 215.543 591.4 215.555C583.446 215.643 575.48 215.63 567.527 215.555C565.557 215.53 564.717 216.119 564.78 218.213C564.905 222.249 564.817 226.298 564.817 230.334L564.805 230.347ZM413.414 230.535H413.389C413.389 226.611 413.414 222.7 413.389 218.777C413.364 215.706 413.326 215.643 410.428 215.63C402.588 215.605 394.735 215.605 386.894 215.655C384.197 215.668 384.147 215.743 384.097 218.589C383.959 226.686 383.921 234.784 383.745 242.882C383.708 244.7 384.21 245.489 386.142 245.477C394.509 245.389 402.876 245.376 411.244 245.414C413.013 245.414 413.464 244.674 413.439 243.07C413.376 238.896 413.414 234.709 413.414 230.535ZM170.961 80.2375H170.998C170.998 75.9254 170.948 71.6133 171.023 67.3137C171.061 65.5087 170.484 64.7315 168.577 64.7566C160.348 64.8568 152.106 64.8819 143.876 64.8568C142.133 64.8568 141.643 65.5964 141.656 67.2135C141.694 75.6998 141.694 84.1861 141.631 92.685C141.631 94.3522 142.195 94.9915 143.901 94.979C152.131 94.9037 160.373 94.8787 168.602 94.9539C170.584 94.9664 171.036 94.1642 170.998 92.3967C170.91 88.3478 170.973 84.299 170.973 80.2501L170.961 80.2375ZM81.2652 49.0123H81.2527C81.2527 53.0612 81.328 57.0975 81.2276 61.1464C81.1774 63.0643 81.6416 64.0295 83.8118 64.0045C91.9032 63.9042 100.007 63.9167 108.099 63.9543C109.93 63.9543 110.633 63.3025 110.62 61.4347C110.582 53.3495 110.62 45.2518 110.695 37.1666C110.72 35.2361 110.194 34.3837 108.061 34.4214C99.9695 34.5342 91.8656 34.5592 83.7742 34.4464C81.5161 34.4088 81.2151 35.4492 81.2401 37.2794C81.3154 41.1904 81.2652 45.1014 81.2652 49.0249V49.0123ZM746.152 230.911H745.977C745.977 226.737 745.901 222.55 746.014 218.376C746.064 216.332 745.299 215.643 743.28 215.655C735.439 215.718 727.586 215.693 719.745 215.63C717.977 215.618 717.124 216.094 717.136 218.05C717.186 226.411 717.149 234.772 717.086 243.133C717.073 244.812 717.688 245.439 719.369 245.439C727.473 245.414 735.577 245.439 743.694 245.527C745.525 245.552 746.24 244.963 746.19 243.057C746.077 239.009 746.152 234.96 746.152 230.911ZM216.348 154.509V154.471C220.525 154.471 224.703 154.433 228.892 154.496C230.511 154.521 231.251 154.007 231.238 152.277C231.201 144.054 231.201 135.831 231.289 127.608C231.314 125.715 230.586 125.076 228.78 125.089C220.676 125.139 212.584 125.176 204.48 125.089C202.398 125.063 201.72 125.878 201.72 127.859C201.72 135.819 201.62 143.779 201.62 151.738C201.62 154.421 201.72 154.471 204.593 154.496C208.507 154.546 212.434 154.496 216.348 154.496V154.509ZM503.486 230.723H503.473C503.473 226.686 503.511 222.638 503.473 218.601C503.435 215.731 503.398 215.655 500.738 215.63C492.91 215.593 485.082 215.643 477.254 215.593C475.486 215.593 474.645 216.057 474.658 218.012C474.72 226.348 474.695 234.696 474.645 243.032C474.645 244.624 475.097 245.414 476.853 245.402C484.944 245.339 493.036 245.339 501.115 245.402C503.059 245.414 503.561 244.599 503.523 242.832C503.435 238.795 503.498 234.747 503.498 230.71L503.486 230.723ZM535.036 230.485H535.011C535.011 234.521 535.073 238.57 534.986 242.606C534.948 244.474 535.349 245.452 537.545 245.427C545.498 245.314 553.464 245.339 561.43 245.414C563.312 245.427 563.926 244.712 563.914 242.894C563.851 234.684 563.826 226.473 563.901 218.25C563.914 216.182 563.111 215.568 561.129 215.593C553.301 215.668 545.473 215.681 537.645 215.593C535.512 215.568 534.986 216.445 535.023 218.376C535.111 222.412 535.048 226.461 535.048 230.497L535.036 230.485ZM655.905 230.622H655.867C655.867 226.323 655.842 222.023 655.88 217.724C655.892 216.27 655.366 215.605 653.835 215.618C645.493 215.655 637.15 215.643 628.808 215.618C627.416 215.618 626.6 215.981 626.6 217.561C626.613 226.16 626.6 234.747 626.563 243.346C626.563 244.837 627.152 245.402 628.645 245.402C636.987 245.364 645.33 245.351 653.672 245.414C655.391 245.414 655.943 244.775 655.918 243.12C655.842 238.958 655.892 234.784 655.892 230.622H655.905ZM685.711 230.472H685.661C685.661 226.31 685.624 222.136 685.674 217.974C685.699 216.382 685.21 215.605 683.466 215.605C675.387 215.655 667.296 215.668 659.217 215.605C657.473 215.593 656.971 216.37 656.971 217.949C656.971 226.285 656.934 234.621 656.858 242.957C656.833 244.812 657.548 245.439 659.405 245.427C667.358 245.351 675.312 245.351 683.265 245.427C685.109 245.439 685.812 244.875 685.762 242.982C685.661 238.821 685.724 234.646 685.724 230.485L685.711 230.472ZM382.867 170.654H383.018C383.018 166.354 382.968 162.042 383.043 157.743C383.068 156 382.667 155.123 380.672 155.148C372.706 155.248 364.753 155.261 356.787 155.211C354.93 155.198 354.265 155.825 354.29 157.693C354.366 166.166 354.366 174.64 354.29 183.114C354.278 185.132 354.943 185.822 356.987 185.797C364.69 185.696 372.392 185.759 380.082 185.721C382.754 185.709 382.805 185.634 382.842 182.776C382.892 178.739 382.842 174.69 382.842 170.654H382.867ZM443.208 230.673H443.183C443.183 226.498 443.133 222.337 443.208 218.162C443.245 216.37 442.719 215.593 440.774 215.605C432.821 215.693 424.855 215.668 416.901 215.63C415.296 215.63 414.518 216.144 414.505 217.849C414.455 226.185 414.355 234.533 414.217 242.869C414.192 244.637 414.731 245.464 416.663 245.439C424.754 245.364 432.833 245.376 440.925 245.427C442.581 245.427 443.258 244.9 443.22 243.183C443.145 239.009 443.195 234.847 443.195 230.673H443.208ZM200.717 139.893H200.742C200.742 135.982 200.78 132.058 200.742 128.147C200.704 125.226 200.667 125.164 197.631 125.151C190.054 125.114 182.477 125.114 174.9 125.176C172.115 125.201 171.989 125.289 171.939 128.034C171.814 135.994 171.826 143.954 171.688 151.914C171.651 153.92 172.366 154.697 174.41 154.659C182.376 154.559 190.342 154.521 198.308 154.559C200.228 154.559 200.792 153.844 200.742 152.027C200.642 147.978 200.717 143.941 200.717 139.893ZM761.683 186.611C757.505 186.611 753.328 186.636 749.163 186.599C747.745 186.586 746.968 187 746.98 188.579C747.018 196.665 747.018 204.737 746.98 212.822C746.98 214.377 747.683 214.841 749.125 214.841C757.606 214.816 766.086 214.816 774.566 214.841C776.109 214.841 776.586 214.126 776.573 212.697C776.536 204.75 776.523 196.79 776.573 188.843C776.573 187.138 775.846 186.574 774.215 186.599C770.038 186.661 765.86 186.624 761.695 186.611H761.683ZM610.305 214.803C614.482 214.803 618.647 214.74 622.824 214.828C624.618 214.866 625.396 214.377 625.383 212.434C625.308 204.624 625.308 196.802 625.383 188.98C625.409 187.075 624.694 186.536 622.862 186.549C614.52 186.624 606.177 186.611 597.823 186.549C596.066 186.536 595.226 186.95 595.251 188.918C595.339 196.727 595.339 204.549 595.276 212.371C595.263 214.251 595.928 214.878 597.785 214.828C601.95 214.728 606.127 214.791 610.305 214.803ZM519.28 214.803C523.457 214.803 527.634 214.791 531.799 214.803C533.154 214.803 534.045 214.515 534.045 212.885C534.02 204.8 534.045 196.715 534.082 188.642C534.082 187.15 533.455 186.561 531.987 186.574C523.507 186.611 515.027 186.611 506.547 186.574C505.054 186.574 504.464 187.188 504.477 188.667C504.514 196.614 504.527 204.574 504.477 212.522C504.477 214.189 505.066 214.853 506.76 214.816C510.937 214.753 515.115 214.791 519.28 214.791V214.803ZM458.613 214.803C462.665 214.803 466.717 214.841 470.769 214.803C473.579 214.778 473.654 214.728 473.667 212.008C473.717 204.436 473.654 196.865 473.742 189.294C473.767 187.313 473.19 186.536 471.095 186.561C462.991 186.661 454.887 186.661 446.796 186.561C444.613 186.536 444.161 187.501 444.174 189.369C444.224 196.94 444.174 204.512 444.237 212.083C444.262 214.728 444.349 214.765 447.247 214.803C451.036 214.841 454.824 214.803 458.613 214.803ZM111.849 79.6108H111.799C111.799 83.9229 111.849 88.235 111.774 92.5346C111.737 94.3397 112.314 95.1043 114.22 95.0792C122.199 94.979 130.165 94.9539 138.143 94.979C139.849 94.979 140.401 94.3271 140.401 92.6725C140.364 84.1861 140.376 75.6998 140.427 67.2009C140.427 65.5714 139.925 64.8443 138.181 64.8694C130.203 64.9446 122.237 64.9947 114.258 64.9321C112.339 64.9195 111.762 65.634 111.812 67.4642C111.9 71.513 111.837 75.5619 111.837 79.6108H111.849ZM701.443 214.816C705.369 214.816 709.296 214.841 713.21 214.816C716.07 214.79 716.145 214.74 716.158 212.07C716.195 204.487 716.12 196.915 716.195 189.331C716.22 187.376 715.681 186.549 713.561 186.574C705.457 186.674 697.34 186.661 689.236 186.574C687.129 186.549 686.552 187.389 686.577 189.344C686.665 196.928 686.615 204.499 686.677 212.083C686.702 214.753 686.79 214.79 689.676 214.816C693.602 214.853 697.529 214.816 701.443 214.828V214.816ZM111.862 49.0875C111.862 52.9985 111.837 56.9095 111.862 60.808C111.887 63.8164 111.925 63.9042 114.885 63.9167C122.45 63.9418 130.014 63.9167 137.579 63.8415C140.326 63.8164 140.389 63.7287 140.427 60.9584C140.539 53.0111 140.552 45.0637 140.69 37.1164C140.728 35.2236 140.276 34.2709 138.106 34.3085C130.152 34.4464 122.199 34.4715 114.246 34.4214C112.289 34.4088 111.799 35.1985 111.837 36.9785C111.925 41.0149 111.862 45.0512 111.862 49.1001V49.0875ZM95.9427 33.406V33.3809C99.9946 33.3809 104.047 33.3308 108.099 33.406C109.867 33.4311 110.72 32.8795 110.733 30.9616C110.783 23.2525 110.909 15.5559 111.059 7.84671C111.097 6.0291 110.419 5.27699 108.538 5.28952C100.17 5.3898 91.8029 5.42741 83.448 5.41488C81.6416 5.41488 81.2903 6.26727 81.2903 7.82164C81.3154 15.5308 81.3279 23.2274 81.2527 30.9366C81.2401 32.8168 81.9426 33.4687 83.7867 33.4311C87.8387 33.3433 91.8907 33.406 95.9427 33.406ZM579.231 214.803C583.409 214.803 587.586 214.765 591.776 214.828C593.357 214.853 594.197 214.427 594.197 212.66C594.197 204.7 594.272 196.74 594.348 188.78C594.36 187.088 593.582 186.561 591.952 186.561C583.722 186.611 575.493 186.624 567.263 186.561C565.419 186.549 564.742 187.138 564.754 189.031C564.842 196.865 564.842 204.687 564.805 212.522C564.805 214.176 565.357 214.866 567.063 214.841C571.115 214.765 575.167 214.816 579.206 214.816L579.231 214.803ZM216.749 123.96V123.923C220.789 123.923 224.84 123.885 228.88 123.935C230.41 123.96 231.301 123.609 231.301 121.804C231.289 113.857 231.351 105.897 231.439 97.9498C231.452 96.3202 230.875 95.5932 229.168 95.6182C220.952 95.7561 212.735 95.8815 204.518 95.9066C202.41 95.9066 201.833 96.8091 201.846 98.7521C201.883 106.185 201.783 113.606 201.808 121.04C201.808 123.898 201.909 123.923 205.007 123.948C208.921 123.973 212.835 123.948 216.749 123.948V123.96ZM641.064 214.803C645.104 214.803 649.156 214.728 653.195 214.841C655.177 214.891 655.955 214.302 655.93 212.208C655.842 204.524 655.867 196.828 655.93 189.143C655.943 187.414 655.566 186.536 653.559 186.561C645.342 186.649 637.125 186.624 628.909 186.561C627.303 186.561 626.538 187.012 626.55 188.755C626.625 196.702 626.638 204.65 626.6 212.609C626.6 214.339 627.303 214.853 628.934 214.828C632.973 214.753 637.025 214.803 641.064 214.803ZM549.412 214.803C553.464 214.803 557.516 214.753 561.556 214.828C563.224 214.853 563.876 214.214 563.876 212.547C563.851 204.712 563.851 196.89 563.926 189.056C563.939 187.188 563.274 186.549 561.405 186.561C553.439 186.636 545.473 186.624 537.507 186.561C535.688 186.549 534.961 187.1 534.973 189.006C535.061 196.702 535.073 204.399 534.998 212.095C534.986 214.063 535.55 214.903 537.645 214.841C541.559 214.715 545.486 214.803 549.4 214.803H549.412ZM399.063 214.816C403.102 214.816 407.154 214.753 411.194 214.841C412.912 214.878 413.439 214.176 413.439 212.534C413.389 204.587 413.414 196.64 413.439 188.692C413.439 187.238 412.95 186.586 411.407 186.586C403.065 186.624 394.71 186.636 386.367 186.586C384.636 186.586 384.122 187.276 384.134 188.905C384.172 196.727 384.185 204.537 384.109 212.359C384.097 214.176 384.636 214.916 386.556 214.866C390.72 214.753 394.898 214.828 399.075 214.828L399.063 214.816ZM338.183 214.816C342.36 214.816 346.538 214.778 350.702 214.841C352.271 214.866 353.099 214.477 353.086 212.685C353.023 204.737 353.036 196.777 353.086 188.83C353.086 187.138 352.446 186.561 350.778 186.574C342.561 186.624 334.332 186.624 326.115 186.574C324.509 186.574 323.744 187.025 323.756 188.78C323.806 196.727 323.806 204.687 323.731 212.634C323.719 214.377 324.421 214.878 326.052 214.841C330.091 214.765 334.143 214.816 338.183 214.816ZM731.538 214.816C735.577 214.816 739.629 214.765 743.668 214.841C745.312 214.866 746.002 214.302 745.977 212.597C745.914 204.775 745.914 196.953 745.977 189.131C745.989 187.338 745.437 186.574 743.53 186.586C735.577 186.661 727.611 186.649 719.645 186.586C717.801 186.574 717.111 187.175 717.124 189.056C717.199 196.752 717.199 204.436 717.124 212.133C717.099 214.114 717.701 214.928 719.783 214.866C723.697 214.74 727.611 214.828 731.525 214.828L731.538 214.816ZM791.866 186.611C787.952 186.611 784.025 186.649 780.111 186.586C778.392 186.561 777.464 186.937 777.489 188.955C777.577 196.79 777.539 204.612 777.502 212.446C777.502 213.988 777.84 214.866 779.647 214.853C787.876 214.79 796.106 214.816 804.335 214.853C805.84 214.853 806.418 214.214 806.405 212.747C806.367 204.787 806.342 196.828 806.367 188.868C806.367 187.175 805.652 186.574 804.009 186.599C799.957 186.661 795.905 186.624 791.866 186.624V186.611ZM489.084 186.586C485.032 186.586 480.993 186.636 476.941 186.561C475.272 186.536 474.62 187.163 474.633 188.843C474.683 196.802 474.683 204.75 474.67 212.71C474.67 214.189 475.247 214.803 476.753 214.803C484.982 214.765 493.199 214.765 501.428 214.803C502.946 214.803 503.486 214.164 503.486 212.697C503.461 204.737 503.461 196.79 503.523 188.83C503.536 187.125 502.883 186.536 501.228 186.561C497.176 186.636 493.136 186.586 489.084 186.586ZM65.6344 33.5063V33.4311C69.5484 33.4311 73.4624 33.4812 77.3763 33.4185C80.0986 33.3684 80.2617 33.243 80.2993 30.5104C80.3996 23.077 80.3745 15.6436 80.4749 8.21023C80.5 6.2798 79.9355 5.40234 77.8154 5.42741C69.8495 5.52769 61.8961 5.52769 53.9301 5.46502C52.0735 5.45248 51.4086 6.05417 51.4337 7.92192C51.4964 15.6185 51.4839 23.3152 51.4212 30.9992C51.4086 32.7918 51.9606 33.594 53.8925 33.5439C57.8064 33.4311 61.7204 33.5063 65.6344 33.5063ZM671.812 186.599C667.772 186.599 663.72 186.661 659.681 186.574C657.787 186.524 656.771 186.937 656.808 189.118C656.934 196.928 656.959 204.75 656.984 212.572C656.984 214.201 657.586 214.866 659.292 214.853C667.371 214.79 675.462 214.79 683.541 214.853C685.348 214.866 685.699 214.001 685.686 212.459C685.649 204.637 685.624 196.828 685.711 189.006C685.736 187.075 684.959 186.549 683.165 186.599C679.389 186.687 675.6 186.624 671.824 186.624L671.812 186.599ZM368.541 214.828C372.593 214.828 376.633 214.791 380.685 214.828C382.064 214.841 382.892 214.527 382.88 212.91C382.842 204.825 382.855 196.74 382.88 188.655C382.88 187.175 382.315 186.574 380.81 186.586C372.719 186.624 364.627 186.636 356.536 186.586C354.78 186.574 354.328 187.351 354.328 188.93C354.366 196.752 354.378 204.574 354.303 212.396C354.278 214.277 354.93 214.903 356.799 214.853C360.713 214.74 364.627 214.816 368.541 214.816V214.828ZM428.944 186.599C425.03 186.599 421.104 186.649 417.19 186.574C415.446 186.536 414.543 186.962 414.556 188.943C414.618 196.777 414.618 204.599 414.543 212.434C414.53 214.364 415.333 214.853 417.127 214.841C424.968 214.778 432.808 214.778 440.636 214.841C442.38 214.853 443.258 214.477 443.233 212.471C443.158 204.637 443.17 196.815 443.258 188.98C443.283 187.038 442.493 186.536 440.699 186.574C436.785 186.661 432.858 186.599 428.944 186.599ZM308.176 214.853V214.828C312.228 214.828 316.28 214.778 320.332 214.853C321.987 214.878 322.677 214.314 322.665 212.609C322.615 204.637 322.615 196.677 322.627 188.705C322.627 187.251 322.063 186.586 320.532 186.599C312.428 186.636 304.312 186.649 296.208 186.599C294.489 186.599 293.95 187.301 293.95 188.93C293.975 196.765 293.987 204.612 293.887 212.446C293.862 214.352 294.552 214.941 296.396 214.891C300.31 214.79 304.237 214.853 308.163 214.853H308.176ZM155.907 124.199V124.061C160.072 124.061 164.249 124.01 168.414 124.086C170.195 124.123 170.986 123.584 170.961 121.641C170.885 113.957 170.898 106.273 170.973 98.5891C170.986 96.759 170.396 96.0444 168.514 96.057C160.435 96.1322 152.357 96.1447 144.278 96.0695C142.246 96.057 141.581 96.7966 141.593 98.8022C141.643 106.348 141.606 113.907 141.505 121.453C141.48 123.421 142.095 124.274 144.165 124.211C148.066 124.098 151.98 124.173 155.894 124.173L155.907 124.199ZM186.466 124.036V123.96C190.38 123.96 194.294 123.91 198.208 123.985C199.964 124.023 200.805 123.572 200.792 121.604C200.717 113.907 200.742 106.223 200.817 98.5264C200.83 96.7339 200.29 95.9316 198.371 95.9567C190.418 96.057 182.452 96.0695 174.486 96.0695C172.867 96.0695 172.127 96.6336 172.127 98.3384C172.127 106.16 172.065 113.982 171.977 121.804C171.952 123.497 172.679 124.086 174.323 124.061C178.362 123.998 182.414 124.036 186.453 124.036H186.466Z" fill="white"/>
</svg>
