<svg width="607" height="227" viewBox="0 0 607 227" fill="none" xmlns="http://www.w3.org/2000/svg">
<g opacity="0.2" clip-path="url(#clip0_354_1027)">
<path d="M229.46 226.54C229.51 222.47 229.54 218.41 229.62 214.34C229.68 211.34 229.71 211.24 232.48 211.23C247.4 211.17 262.32 211.15 277.24 211.15C280.01 211.15 280.01 211.24 280.22 214.18C280.32 215.52 280.13 216.9 280.75 218.29C281.77 216.88 281.33 215.31 281.33 213.88C281.33 211.79 282.13 211.03 284.22 211.05C289.24 211.1 294.26 210.95 299.28 210.9C301.86 210.88 304.43 210.9 307.01 210.53C299.88 210.36 292.74 210.2 285.61 210.02C281.51 209.92 281.5 209.91 281.51 206.03C281.53 191.79 281.55 177.55 281.59 163.31C281.6 159.47 281.63 159.42 285.35 159.42C299.19 159.4 313.02 159.41 326.86 159.43C330.52 159.43 330.53 159.49 330.56 163.33C330.65 173.77 330.44 184.22 331.09 194.65C331.19 196.21 331.34 197.76 331.59 199.3C332.24 187.64 332.09 175.98 332.15 164.32C332.18 159.51 331.45 159.4 336.95 159.4C350.65 159.4 364.35 159.39 378.05 159.38C378.46 159.38 378.86 159.37 379.27 159.38C382.41 159.47 382.44 159.47 382.51 162.52C382.61 167.13 382.64 171.74 382.77 176.35C382.8 177.35 382.47 178.48 383.77 179.94C383.87 174.84 383.99 170.32 384.04 165.79C384.12 159.37 384.1 159.37 390.56 159.35C403.45 159.32 416.33 159.28 429.22 159.27C433.12 159.27 433.1 159.3 433.34 163.29C433.5 165.85 433.72 168.4 434.56 170.95C434.56 167.85 434.61 164.75 434.54 161.65C434.5 159.89 435.31 159.24 436.99 159.25C441.06 159.27 445.13 159.23 449.2 159.22C459.64 159.2 470.09 159.2 480.53 159.17C485.85 159.16 485.09 159.28 485.28 163.82C485.3 164.35 485.36 164.89 485.41 165.43C486.23 165.26 486.21 164.63 486.23 164.13C486.41 159.12 485.6 159.16 491.53 159.17C504.96 159.19 518.39 159.19 531.82 159.23C535.63 159.24 535.62 159.28 535.83 162.95C535.92 164.57 536.07 166.19 536.22 167.81C536.27 168.33 536.4 168.84 537.05 169.34C537.05 166.96 536.98 164.57 537.07 162.19C537.17 159.36 537.23 159.35 540.15 159.25C541.1 159.22 542.05 159.25 543 159.25C556.02 159.28 569.04 159.31 582.07 159.33C582.88 159.33 583.7 159.31 584.51 159.34C587.43 159.46 587.51 159.46 587.54 162.3C587.6 167.31 587.56 172.33 587.56 177.35C587.83 177.38 588.11 177.41 588.38 177.45C588.54 176.02 588.8 174.59 588.85 173.16C588.97 169.5 589.12 165.84 589.03 162.18C588.98 160.05 589.74 159.28 591.85 159.34C595.64 159.45 599.45 159.41 603.24 159.36C604.56 159.34 605.95 159.71 607.21 158.94C607.21 157.57 606.15 157.94 605.47 157.94C600.99 157.9 596.52 157.96 592.04 157.91C589.2 157.88 589.12 157.81 589.12 154.88C589.12 140.91 589.14 126.94 589.19 112.97C589.2 109.94 589.28 109.9 592.46 109.86C596.39 109.81 600.33 109.88 604.26 109.82C605.26 109.81 606.43 110.24 607.38 108.98C606.76 108.09 605.79 108.29 604.95 108.28C600.61 108.26 596.27 108.19 591.93 108.3C589.78 108.35 589.15 107.49 589.16 105.42C589.22 90.0897 589.22 74.7697 589.16 59.4397C589.16 57.3197 589.89 56.5597 591.99 56.6197C595.79 56.7297 599.59 56.6597 603.38 56.6197C604.71 56.6197 606.08 56.8097 607.37 56.2697C607.33 54.6497 606.13 55.0197 605.3 55.0097C601.23 54.9597 597.16 55.0097 593.09 54.9797C589.21 54.9597 589.2 54.9497 589.18 50.8997C589.1 38.2897 589.04 25.6697 588.93 13.0597C588.92 11.7497 589.16 10.3697 588.4 8.84973C587.58 9.88973 587.82 10.9697 587.81 11.9297C587.7 24.5397 587.62 37.1497 587.53 49.7697C587.53 50.8497 587.48 51.9397 587.52 53.0197C587.56 54.3997 586.88 54.9897 585.56 54.9697C584.75 54.9597 583.93 54.9897 583.12 54.9897C569.28 54.9897 555.45 54.9997 541.61 55.0097C540.8 55.0097 539.98 54.9797 539.17 54.9897C537.82 54.9897 537.2 54.3397 537.25 52.9897C537.28 52.0397 537.25 51.0897 537.24 50.1397C537.19 36.3097 537.14 22.4697 537.08 8.63973C537.06 4.35973 537.03 4.32973 541.2 4.30973C556.8 4.22973 572.4 4.16973 588 4.08973C588.81 4.08973 589.62 3.99973 590.44 3.56973C574.55 3.56973 558.66 3.56973 542.77 3.56973C541.82 3.56973 540.86 3.48973 539.92 3.56973C537.69 3.76973 536.54 2.91973 536.73 0.359727C536.48 3.04973 534.99 3.60973 532.65 3.57973C521.26 3.45973 509.86 3.49973 498.47 3.47973C495.62 3.47973 492.77 3.48973 489.92 3.46973C486.83 3.43973 486.83 3.41973 485.84 -0.0302734C484.97 1.04973 485.7 2.71973 484.6 3.15973C483.64 3.53973 482.47 3.46973 481.4 3.46973C466.89 3.50973 452.37 3.53973 437.86 3.51973C436.54 3.51973 434.67 4.24973 434.34 1.90973C434.19 0.839726 433.94 1.14973 433.75 1.86973C433.13 4.16973 431.23 3.54973 429.72 3.54973C416.56 3.58973 403.41 3.56973 390.25 4.27973C402.87 4.27973 415.49 4.27973 428.11 4.27973C429.19 4.27973 430.28 4.32973 431.36 4.30973C432.71 4.27973 433.37 4.90973 433.34 6.25973C433.33 6.79973 433.32 7.33973 433.32 7.88973C433.24 22.1297 433.16 36.3697 433.08 50.6097C433.08 51.5597 433.06 52.5097 433.04 53.4597C433.02 54.4497 432.48 54.9297 431.52 54.9597C430.71 54.9897 429.89 54.9997 429.08 54.9997C415.38 54.9997 401.68 54.9897 387.98 54.9797C387.57 54.9797 387.16 54.9497 386.76 54.9797C384.96 55.1297 383.87 54.5597 384.09 52.4997C384.19 51.5597 384.1 50.5997 384.09 49.6497C384.01 38.1197 383.95 26.5897 383.85 15.0697C383.83 13.1997 383.9 11.3097 382.62 9.50973C382.62 11.7197 382.62 13.9297 382.62 16.1397C382.57 27.9397 382.52 39.7397 382.45 51.5397C382.43 54.8997 382.39 54.9597 379.12 54.9697C364.61 54.9897 350.09 54.9797 335.58 54.9597C332.22 54.9597 332.16 54.8997 332.15 51.6197C332.12 41.4497 332.14 31.2797 332.14 21.1097C331.87 21.0897 331.61 21.0797 331.34 21.0597C331.14 23.5597 330.81 26.0597 330.77 28.5697C330.64 36.2997 330.64 44.0297 330.55 51.7597C330.52 54.8797 330.48 54.9497 327.43 54.9497C313.19 54.9797 298.94 54.9897 284.7 54.9697C281.56 54.9697 281.53 54.8997 281.44 51.8797C281.35 49.0297 281.31 46.1897 281.26 43.3397C281.23 41.7397 281.09 40.1597 279.99 38.6897C279.99 42.8897 280.02 47.0797 279.99 51.2797C279.95 54.9497 279.92 54.9797 276.1 54.9997C261.86 55.0797 247.61 55.0197 233.38 55.7897C229.11 56.0197 229.16 55.9997 228.68 60.1397C228.23 64.0597 228.14 67.9897 228.12 71.9197C228.07 82.9097 228.06 93.8897 228.01 104.88C227.99 108.09 227.94 108.18 224.95 108.19C209.89 108.23 194.84 108.23 179.78 108.2C176.65 108.2 176.61 108.12 176.55 105.04C176.44 99.6197 176.41 94.1897 176.3 88.7697C176.27 87.4797 176.43 86.1197 174.99 84.9897C174.99 91.4597 175.01 97.9197 174.99 104.39C174.97 108.17 174.94 108.19 171.19 108.23C156.68 108.36 142.16 108.54 127.65 108.53C124.85 108.53 122.07 108.6 119.04 108.96C120.02 109.01 120.75 109.07 121.48 109.08C123.06 109.08 123.64 110 123.58 111.43C123.48 113.87 123.27 116.31 123.25 118.74C123.16 130.4 123.12 142.07 123.05 153.73C123.03 157.46 123.01 157.49 119.27 157.5C105.3 157.52 91.33 157.53 77.35 157.52C74.02 157.52 74.04 157.47 73.9 154.19C73.71 149.63 74.13 145.02 72.48 140.51C72.48 145.04 72.52 149.58 72.47 154.11C72.4301 157.46 72.39 157.51 69.12 157.55C61.12 157.65 53.12 157.66 45.15 158.98C52.96 158.98 60.77 158.96 68.58 158.98C72.4 158.99 72.43 159.03 72.43 162.71C72.43 177.09 72.4301 191.46 72.4 205.84C72.4 209.4 72.36 209.44 68.88 209.45C54.37 209.48 39.85 209.49 25.34 209.48C22.06 209.48 22.01 209.42 22 206.09C21.97 197.55 22 189.01 21.69 180.47C20.47 188.34 20.69 196.25 20.57 204.16C20.48 210.35 21.25 209.43 15.09 209.51C10.1 209.58 5.09998 209.52 0.109985 209.52C0.0899658 209.86 0.0700073 210.21 0.0499878 210.55C1.53998 210.63 3.03003 210.77 4.53003 210.79C9.14001 210.87 13.75 210.95 18.36 210.95C19.89 210.95 20.58 211.51 20.54 213.08C20.44 217.55 20.4 222.01 20.34 226.48H21.97C21.97 222.28 22.05 218.08 21.97 213.88C21.9301 211.95 22.33 210.93 24.62 210.94C39.66 211.04 54.7 211.05 69.75 210.99C71.98 210.99 72.49 211.89 72.45 213.88C72.36 218.08 72.44 222.28 72.45 226.48H74.08C74.08 222.29 74.1201 218.1 74.03 213.92C73.9901 212 74.36 210.98 76.67 211C91.26 211.1 105.86 211.08 120.45 211.04C122.3 211.04 123.17 211.52 123.1 213.53C122.95 217.85 122.97 222.17 122.92 226.49H124.55C124.61 222.71 124.69 218.94 124.71 215.16C124.73 210.64 124.64 211.08 128.99 211.07C137.23 211.07 145.47 211.07 153.71 211.09C159.65 211.09 165.59 211.09 171.54 211.11C175 211.13 175.03 211.16 175.05 214.74C175.07 218.66 175.03 222.57 175.02 226.49H176.65C176.67 225.68 176.72 224.87 176.72 224.06C176.73 220.54 176.78 217.02 176.72 213.51C176.69 211.8 177.31 210.97 179.08 211.12C179.75 211.18 180.43 211.12 181.11 211.12C195.32 211.13 209.52 211.14 223.73 211.16C224.54 211.16 225.35 211.2 226.16 211.17C227.53 211.13 228.14 211.81 228.11 213.13C228.01 217.58 228.5 222.04 227.93 226.49H229.56L229.46 226.54ZM382.42 82.3497C382.42 89.9397 382.45 97.5397 382.41 105.13C382.39 108.14 382.33 108.25 379.56 108.25C364.78 108.28 349.99 108.27 335.21 108.23C332.28 108.23 332.18 108.11 332.17 105.28C332.13 90.0897 332.12 74.8997 332.14 59.7097C332.14 56.6697 332.22 56.6097 335.4 56.6097C349.91 56.6097 364.43 56.6097 378.94 56.6597C382.38 56.6597 382.42 56.7297 382.43 60.3797C382.45 67.6997 382.43 75.0297 382.43 82.3497H382.42ZM229.57 81.9697H229.15C229.15 74.3797 229.15 66.7897 229.15 59.1997C229.15 56.2697 229.23 56.0997 232.03 56.1197C247.08 56.2197 262.12 56.4097 277.17 56.4697C279.33 56.4697 279.93 57.2797 279.92 59.3297C279.85 74.6497 279.88 89.9597 279.84 105.28C279.84 108.12 279.75 108.22 276.81 108.23C262.03 108.27 247.26 108.27 232.48 108.23C229.66 108.23 229.59 108.11 229.57 105.16C229.53 97.4297 229.56 89.7097 229.56 81.9797L229.57 81.9697ZM484.95 82.2997C484.95 89.8897 484.97 97.4797 484.94 105.07C484.92 108.21 484.86 108.29 481.79 108.3C467.15 108.33 452.52 108.33 437.88 108.3C434.8 108.3 434.72 108.21 434.72 105.07C434.69 90.0297 434.68 74.9897 434.71 59.9497C434.71 56.8297 434.79 56.7397 437.88 56.7297C452.52 56.6997 467.16 56.6997 481.79 56.7297C484.88 56.7297 484.94 56.8197 484.95 59.9497C484.99 67.3997 484.96 74.8597 484.95 82.3097V82.2997ZM537.23 82.7297C537.23 75.1397 537.21 67.5497 537.24 59.9597C537.26 56.7997 537.32 56.7197 540.38 56.7097C555.02 56.6697 569.66 56.6597 584.3 56.6797C587.42 56.6797 587.49 56.7597 587.49 59.8597C587.51 74.9097 587.5 89.9497 587.47 105C587.47 108.17 587.4 108.26 584.35 108.27C569.71 108.31 555.07 108.32 540.43 108.29C537.31 108.29 537.25 108.2 537.23 105.1C537.19 97.6497 537.22 90.1897 537.22 82.7397L537.23 82.7297ZM202.28 209.59V209.52C194.82 209.52 187.37 209.54 179.91 209.51C176.73 209.5 176.65 209.44 176.65 206.45C176.61 191.81 176.6 177.17 176.62 162.53C176.62 159.4 176.69 159.31 179.78 159.31C194.83 159.31 209.88 159.33 224.93 159.38C227.87 159.39 227.96 159.48 227.96 162.3C228 177.08 228.02 191.85 228 206.63C228 209.5 227.92 209.57 225.06 209.58C217.47 209.62 209.87 209.59 202.28 209.59ZM459.85 4.35973V4.42973C467.17 4.42973 474.5 4.39973 481.82 4.43973C485.05 4.45973 485.11 4.51973 485.1 7.54973C485.07 22.3297 485.02 37.1197 484.94 51.8997C484.92 54.9497 484.86 55.0297 481.71 55.0297C467.2 55.0597 452.68 55.0497 438.17 55.0297C434.72 55.0297 434.69 54.9697 434.67 51.3297C434.6 36.8197 434.53 22.3097 434.48 7.79973C434.47 4.44973 434.5 4.38973 437.86 4.37973C445.18 4.33973 452.51 4.36973 459.83 4.36973L459.85 4.35973ZM149.98 209.52V209.5C142.52 209.5 135.07 209.53 127.61 209.49C124.73 209.47 124.65 209.41 124.65 206.54C124.61 191.76 124.59 176.99 124.61 162.21C124.61 159.3 124.7 159.21 127.56 159.21C142.34 159.21 157.12 159.24 171.9 159.31C174.8 159.32 174.89 159.42 174.89 162.29C174.94 177.07 174.95 191.84 174.94 206.62C174.94 209.44 174.86 209.5 171.95 209.52C164.63 209.56 157.31 209.53 149.99 209.53L149.98 209.52ZM281.54 82.0797H281.45C281.45 74.6297 281.43 67.1897 281.45 59.7397C281.46 56.6097 281.51 56.5397 284.56 56.5397C298.78 56.5397 313 56.5597 327.22 56.6097C330.4 56.6197 330.48 56.6797 330.49 59.6797C330.52 74.8497 330.51 90.0097 330.48 105.18C330.48 108.13 330.39 108.24 327.59 108.24C313.23 108.27 298.88 108.27 284.52 108.23C281.64 108.23 281.56 108.12 281.55 105.24C281.51 97.5197 281.54 89.7997 281.54 82.0897V82.0797ZM384.11 82.4897H384.08C384.08 74.9097 384.05 67.3197 384.09 59.7397C384.11 56.7797 384.17 56.6897 386.98 56.6797C401.34 56.6597 415.7 56.6697 430.06 56.7097C432.93 56.7097 433.02 56.8097 433.02 59.6897C433.05 74.8597 433.05 90.0297 433.02 105.2C433.02 108.17 432.93 108.27 430.15 108.27C415.79 108.3 401.43 108.3 387.07 108.26C384.21 108.26 384.14 108.15 384.12 105.24C384.08 97.6597 384.11 90.0697 384.11 82.4897ZM486.64 82.5497C486.64 74.8297 486.67 67.1097 486.62 59.3897C486.61 57.5697 487.1 56.6697 489.13 56.6697C503.76 56.7197 518.39 56.7197 533.01 56.6697C534.95 56.6697 535.62 57.3697 535.61 59.2797C535.56 74.7197 535.54 90.1597 535.61 105.59C535.61 107.78 534.72 108.33 532.71 108.33C518.35 108.28 504 108.33 489.64 108.29C486.76 108.29 486.68 108.19 486.66 105.31C486.62 97.7297 486.65 90.1397 486.64 82.5597V82.5497ZM279.89 184.26H280.05C280.05 191.84 280 199.42 280.09 207C280.11 209.03 279.6 209.92 277.39 209.9C262.36 209.75 247.33 209.66 232.3 209.64C230.12 209.64 229.57 208.75 229.58 206.73C229.64 191.97 229.59 177.21 229.62 162.46C229.62 159.51 229.7 159.4 232.52 159.39C247.28 159.36 262.04 159.37 276.8 159.42C279.81 159.43 279.87 159.53 279.89 162.73C279.93 169.91 279.9 177.08 279.9 184.26H279.89ZM535.85 29.4997H535.6C535.6 36.9597 535.62 44.4197 535.59 51.8797C535.57 54.9497 535.52 55.0197 532.41 55.0297C518.3 55.0597 504.2 55.0597 490.09 55.0397C486.71 55.0397 486.66 54.9797 486.65 51.7197C486.57 37.0697 486.51 22.4297 486.47 7.77973C486.47 4.50973 486.5 4.44973 489.94 4.43973C504.05 4.38973 518.15 4.37973 532.26 4.36973C535.88 4.36973 535.86 4.40973 535.86 7.93973C535.85 15.1297 535.86 22.3097 535.86 29.4997H535.85ZM73.98 184.61H73.91C73.91 177.16 73.89 169.71 73.92 162.26C73.93 159.13 73.98 159.06 77.04 159.07C91.27 159.07 105.49 159.11 119.72 159.17C122.89 159.18 122.97 159.25 122.98 162.27C123.01 177.03 123.01 191.8 122.98 206.56C122.98 209.39 122.9 209.46 120.03 209.47C105.67 209.5 91.31 209.5 76.95 209.47C74.08 209.47 74.01 209.39 73.99 206.55C73.95 199.24 73.98 191.92 73.98 184.61ZM202.18 157.72V157.61C194.59 157.61 187 157.57 179.42 157.64C177.4 157.66 176.55 157.05 176.56 154.86C176.61 140.77 176.53 126.68 176.54 112.59C176.54 109.8 176.63 109.71 179.61 109.71C194.65 109.71 209.69 109.74 224.73 109.8C227.88 109.81 227.95 109.89 227.96 112.93C227.99 126.88 227.99 140.84 227.96 154.79C227.96 157.62 227.87 157.69 224.95 157.71C217.36 157.75 209.77 157.72 202.19 157.72H202.18ZM562.34 157.95V158.03C555.02 158.03 547.7 158.06 540.37 158.02C537.22 158 537.16 157.94 537.16 154.87C537.16 140.91 537.19 126.94 537.24 112.98C537.25 110.03 537.34 109.91 540.14 109.9C554.92 109.85 569.7 109.85 584.48 109.88C587.38 109.88 587.46 109.99 587.47 112.87C587.51 126.83 587.52 140.8 587.5 154.76C587.5 157.85 587.43 157.92 584.3 157.94C576.98 157.98 569.66 157.95 562.33 157.95H562.34ZM459.8 158.09V158.03C452.35 158.03 444.9 157.99 437.45 158.06C435.41 158.08 434.58 157.43 434.59 155.28C434.68 141.06 434.71 126.84 434.65 112.62C434.65 110.4 435.54 109.85 437.55 109.86C452.45 109.91 467.35 109.92 482.25 109.86C484.42 109.86 484.98 110.75 484.98 112.77C484.96 126.85 485.04 140.94 485.06 155.02C485.06 157.99 484.99 158.05 481.74 158.07C474.43 158.11 467.11 158.08 459.8 158.08V158.09ZM149.5 109.24V109.65C156.82 109.65 164.14 109.62 171.46 109.66C174.84 109.68 174.9 109.75 174.9 113.02C174.92 126.71 174.91 140.4 174.9 154.09C174.9 157.5 174.85 157.57 171.62 157.58C156.98 157.58 142.34 157.57 127.7 157.51C124.67 157.5 124.62 157.42 124.6 154.26C124.48 140.3 124.39 126.34 124.31 112.38C124.29 109.3 124.35 109.25 127.56 109.24C134.88 109.22 142.2 109.24 149.52 109.24H149.5ZM357.59 157.92V157.87C350.28 157.87 342.96 157.9 335.65 157.86C332.23 157.84 332.16 157.79 332.16 154.55C332.13 140.74 332.13 126.92 332.16 113.11C332.16 109.95 332.24 109.85 335.3 109.85C349.93 109.82 364.56 109.83 379.19 109.87C382.36 109.87 382.41 109.96 382.42 113.44C382.46 127.12 382.48 140.8 382.48 154.48C382.48 157.85 382.43 157.9 379.14 157.92C371.96 157.96 364.78 157.93 357.6 157.93L357.59 157.92ZM254.86 157.83V157.73C247.4 157.73 239.95 157.69 232.49 157.75C230.48 157.77 229.56 157.18 229.57 154.97C229.63 140.87 229.62 126.78 229.54 112.68C229.53 110.62 230.17 109.75 232.3 109.76C247.21 109.82 262.12 109.82 277.04 109.79C279.08 109.79 279.9 110.44 279.89 112.61C279.83 126.71 279.89 140.8 279.87 154.9C279.87 157.71 279.78 157.79 276.82 157.81C269.5 157.86 262.18 157.83 254.86 157.83ZM408.55 158.02V157.93C401.51 157.93 394.46 157.96 387.42 157.92C384.19 157.9 384.11 157.84 384.1 154.86C384.08 140.91 384.09 126.96 384.13 113.01C384.13 109.96 384.21 109.88 387.37 109.87C401.59 109.85 415.82 109.86 430.04 109.9C432.94 109.9 433.02 110 433.03 112.83C433.1 126.92 433.13 141 433.14 155.09C433.14 157.91 433.04 157.99 430.09 158.01C422.91 158.05 415.73 158.02 408.55 158.02ZM511.32 158.05V158.09C504.14 158.09 496.97 158.12 489.79 158.08C486.58 158.06 486.51 158.01 486.52 154.99C486.54 141.05 486.58 127.11 486.65 113.16C486.67 110 486.72 109.91 489.75 109.9C503.97 109.86 518.18 109.86 532.4 109.88C535.49 109.88 535.56 109.96 535.57 113.05C535.63 126.99 535.66 140.93 535.66 154.88C535.66 157.95 535.59 158.01 532.44 158.03C525.4 158.07 518.36 158.04 511.32 158.04V158.05ZM306.21 109.82C313.26 109.82 320.31 109.8 327.36 109.84C330.38 109.86 330.47 109.93 330.48 112.66C330.53 126.76 330.54 140.86 330.52 154.95C330.52 157.76 330.42 157.85 327.46 157.85C313.22 157.88 298.99 157.87 284.75 157.83C281.66 157.83 281.59 157.73 281.58 154.61C281.54 140.78 281.54 126.96 281.55 113.13C281.55 109.9 281.62 109.85 285.05 109.83C292.1 109.79 299.15 109.82 306.2 109.82H306.21Z" fill="white"/>
</g>
<defs>
<clipPath id="clip0_354_1027">
<rect width="607.38" height="226.54" fill="white" transform="matrix(-1 0 0 1 607.38 0)"/>
</clipPath>
</defs>
</svg>
